<svg width="48" height="38" viewBox="0 0 48 38" fill="none" xmlns="http://www.w3.org/2000/svg">
<rect width="47.7436" height="38" rx="10" />
<path d="M33 11.575C33 11.1772 32.842 10.7956 32.5607 10.5143C32.2794 10.233 31.8978 10.075 31.5 10.075L19.5 10C19.1022 10 18.7206 10.158 18.4393 10.4393C18.158 10.7206 18 11.1022 18 11.5C18 11.8978 18.158 12.2794 18.4393 12.5607C18.7206 12.842 19.1022 13 19.5 13H27.84L15.435 25.435C15.2944 25.5744 15.1828 25.7403 15.1067 25.9231C15.0305 26.1059 14.9913 26.302 14.9913 26.5C14.9913 26.698 15.0305 26.8941 15.1067 27.0769C15.1828 27.2597 15.2944 27.4256 15.435 27.565C15.5744 27.7056 15.7403 27.8172 15.9231 27.8933C16.1059 27.9695 16.302 28.0087 16.5 28.0087C16.698 28.0087 16.8941 27.9695 17.0769 27.8933C17.2597 27.8172 17.4256 27.7056 17.565 27.565L30 15.13V23.5C30 23.8978 30.158 24.2794 30.4393 24.5607C30.7206 24.842 31.1022 25 31.5 25C31.8978 25 32.2794 24.842 32.5607 24.5607C32.842 24.2794 33 23.8978 33 23.5V11.575Z" fill="white"/>
</svg>
