<svg width="39" height="39" viewBox="0 0 48 39" fill="none" xmlns="http://www.w3.org/2000/svg">
<g clip-path="url(#clip0_77_77)">
<path d="M37 33H11C10.7348 33 10.4804 33.1054 10.2929 33.2929C10.1054 33.4804 10 33.7348 10 34C10 34.2652 10.1054 34.5196 10.2929 34.7071C10.4804 34.8946 10.7348 35 11 35H37C37.2652 35 37.5196 34.8946 37.7071 34.7071C37.8946 34.5196 38 34.2652 38 34C38 33.7348 37.8946 33.4804 37.7071 33.2929C37.5196 33.1054 37.2652 33 37 33Z" fill="#F8F8F8"/>
<path d="M24 31.48L34.61 20.87C34.7738 20.6787 34.8594 20.4326 34.8497 20.1809C34.8399 19.9293 34.7356 19.6905 34.5575 19.5124C34.3794 19.3343 34.1407 19.23 33.889 19.2203C33.6373 19.2106 33.3913 19.2962 33.2 19.46L25 27.65V7C25 6.73478 24.8946 6.48043 24.7071 6.29289C24.5195 6.10536 24.2652 6 24 6C23.7347 6 23.4804 6.10536 23.2929 6.29289C23.1053 6.48043 23 6.73478 23 7V27.65L14.81 19.46C14.7203 19.3553 14.61 19.2703 14.4859 19.2103C14.3619 19.1503 14.2267 19.1165 14.089 19.1112C13.9513 19.1059 13.814 19.1291 13.6856 19.1794C13.5573 19.2296 13.4408 19.3059 13.3433 19.4033C13.2459 19.5008 13.1696 19.6174 13.1193 19.7457C13.069 19.874 13.0458 20.0113 13.0512 20.1491C13.0565 20.2868 13.0902 20.4219 13.1502 20.546C13.2103 20.67 13.2953 20.7804 13.4 20.87L24 31.48Z" fill="#F8F8F8"/>
</g>
<defs>
<clipPath id="clip0_77_77">
<rect width="36" height="36" fill="white" transform="translate(6 2)"/>
</clipPath>
</defs>
</svg>
