<svg width="1415" height="92" viewBox="0 0 1415 92" fill="none" xmlns="http://www.w3.org/2000/svg">
<g clip-path="url(#clip0_64_15)">
<path d="M74.5014 42.1515L76.462 45.6072L75.4817 48.5692V51.0375V52.0248L76.462 53.0121V54.4931L74.5014 55.9741L72.2958 56.9614H70.0902H69.355L68.1296 58.6893V63.1322L68.8648 66.8347L70.0902 69.5499V75.227L72.7859 76.708M74.5014 42.1515L76.2169 39.93L76.9521 39.1895H75.2366L71.9129 40.4237M74.5014 42.1515L73.2072 41.2876L71.9129 40.4237M49.9944 51.5311L51.4648 52.0248L53.1803 49.8033L54.8958 47.8287L55.3859 46.3477L56.3662 45.1135L57.1014 42.1515V40.6705L58.0817 38.9427L60.2873 37.9554L63.7183 32.7719L65.924 31.0441L67.1493 31.7846L68.1296 37.2149L71.9129 40.4237" stroke="#4E52B1" stroke-width="0.5" stroke-linecap="round" stroke-linejoin="round"/>
<path d="M44.8479 54.9868L45.8282 51.0375M44.8479 54.9868L46.3184 55.7273L47.7888 54.9868L49.2592 53.2589L50.7296 49.5565L51.4648 44.6198L49.7494 40.1769H47.7888L46.3184 42.3983M44.8479 54.9868L43.8677 59.4297M44.8479 54.9868L41.1719 54.0726M45.8282 51.0375L46.3184 45.854M45.8282 51.0375L38.231 49.8672M45.8282 51.0375L42.3972 45.854M46.3184 45.854V42.3983M46.3184 45.854H42.3972M46.3184 45.854L41.1719 42.3983M46.3184 42.3983L44.8479 36.968M24.9972 45.854L28.9184 48.4327M24.9972 45.854L33.8198 46.5945M24.9972 45.854L27.4479 43.3857M23.2817 27.5884L27.4479 30.5371M22.5465 19.6898L27.4479 21.4176M21.0761 15.4937L24.9972 15L31.8592 15.4937M31.8592 15.4937L38.231 16.9747L41.662 21.4176M31.8592 15.4937L29.6536 18.4556M41.662 21.4176L43.8677 27.5884M41.662 21.4176L37.0057 22.2815M43.8677 27.5884L44.8479 34.0061M43.8677 27.5884L39.3951 27.1393M44.8479 34.0061V36.968M44.8479 34.0061L38.7212 30.5371M44.8479 36.968L41.1719 42.3983M44.8479 36.968L37.0057 35.2402M43.8677 59.4297L41.1719 54.0726M43.8677 59.4297L43.7287 60.759M43.3775 64.1195L41.1719 68.3157M43.3775 64.1195L33.8198 62.3917M43.3775 64.1195L36.5155 57.4551M43.3775 64.1195L43.7287 60.759M41.1719 68.3157L36.0254 73.0055L30.6339 75.7206M41.1719 68.3157L34.9226 67.822M30.6339 75.7206L24.9972 77.6953L28.9184 70.2903M30.6339 75.7206L34.9226 67.822M30.6339 75.7206L28.9184 70.2903M34.9226 67.822L30.6339 64.1195M30.6339 64.1195L33.8198 62.3917M30.6339 64.1195L27.2029 65.8474H25.4874L28.9184 70.2903M30.6339 64.1195L28.9184 70.2903M33.8198 62.3917L31.8592 61.4044L28.9184 60.1702M28.9184 60.1702H24.9972M28.9184 60.1702L36.5155 57.4551M28.9184 60.1702L26.4677 55.7273L29.8986 54.0726M28.9184 60.1702L31.8592 55.7273M36.5155 57.4551L34.9226 52.5185M36.5155 57.4551L29.8986 54.0726M36.5155 57.4551L30.6339 51.4519M36.5155 57.4551L41.1719 54.0726M34.9226 52.5185L30.6339 51.4519M34.9226 52.5185L41.1719 54.0726M34.9226 52.5185L38.231 49.8672M29.8986 54.0726L30.6339 51.4519M30.6339 51.4519L24.9972 50.0501L28.9184 48.4327M30.6339 51.4519L28.9184 48.4327M41.1719 54.0726L38.231 49.8672M38.231 49.8672L28.9184 48.4327M38.231 49.8672L33.8198 46.5945M38.231 49.8672L42.3972 45.854M28.9184 48.4327L33.8198 46.5945M33.8198 46.5945L31.8592 45.1135M33.8198 46.5945L38.231 47.335M42.3972 45.854L38.231 47.335M28.9184 40.9174L34.9226 40.1769M28.9184 40.9174L26.7127 38.9427M28.9184 40.9174L27.4479 43.3857M34.9226 40.1769L37.0057 35.2402M34.9226 40.1769L41.1719 42.3983M41.1719 42.3983L37.0057 45.1135M41.1719 42.3983L38.231 47.335M37.0057 45.1135H31.8592M37.0057 45.1135L38.231 47.335M31.8592 45.1135L27.4479 43.3857M37.0057 35.2402L30.1437 36.968M37.0057 35.2402L38.7212 30.5371M26.7127 38.9427L23.7719 36.968L29.8986 32.2716M26.7127 38.9427L30.1437 36.968M30.1437 36.968L29.8986 32.2716M38.7212 30.5371L29.8986 32.2716M38.7212 30.5371L39.3951 27.1393M29.8986 32.2716L27.4479 30.5371M29.8986 32.2716L34.9226 26.6902M32.3494 23.1455L27.4479 21.4176M32.3494 23.1455C32.9225 24.0113 33.8888 25.3855 34.9226 26.6902M32.3494 23.1455L37.0057 22.2815M27.4479 30.5371V21.4176M27.4479 21.4176L29.6536 18.4556M34.9226 26.6902L39.3951 27.1393M43.7287 60.759L44.8479 68.3157L48.7691 73.746L56.3663 74.4865L63.9634 76.4611H72.5409L81.8536 82.1383L87.0001 91.7647M39.3951 27.1393L37.0057 22.2815M37.0057 22.2815L29.6536 18.4556M32.3494 42.3983L32.8395 43.6325L34.3099 44.1262L35.7803 43.8793L36.5155 43.3857V42.3983L36.0254 41.411L34.3099 40.9174H33.3296L32.3494 42.3983Z" stroke="#4E52B1" stroke-width="0.5" stroke-linecap="round"/>
<path d="M22.0563 42.6452L22.7915 41.6579H24.262L25.7324 42.6452L27.693 38.0048L25.2423 38.6959H22.0563L20.3408 38.4079L22.0563 42.6452Z" fill="#D9D9D9"/>
<path d="M46.5634 40.4237L47.7887 39.6832V36.9681L44.6028 36.7213L46.5634 40.4237Z" fill="#D9D9D9"/>
<path d="M0 42.1516L0.980282 42.6452L2.20563 39.1896L0 39.6832V42.1516Z" fill="#D9D9D9"/>
<path d="M0.980282 42.6452L0 42.1516V39.6832L2.20563 39.1896M0.980282 42.6452L2.20563 47.335L3.67606 50.297L5.88169 52.0248H14.7042L18.6254 50.297L20.3408 48.0755L22.0563 42.6452M0.980282 42.6452L2.20563 39.1896M22.0563 42.6452L22.7915 41.6579H24.262L25.7324 42.6452M22.0563 42.6452L20.3408 38.4079M25.7324 42.6452L26.7127 44.8667L29.1634 48.816L31.8592 50.297L35.0451 51.0375H41.662L44.6028 48.816L45.5831 46.1009L46.5634 40.4237M25.7324 42.6452L27.693 38.0048M46.5634 40.4237L47.7887 39.6832V36.9681L44.6028 36.7213M46.5634 40.4237L44.6028 36.7213M2.20563 39.1896L8.08732 37.4618H14.7042L20.3408 38.4079M20.3408 38.4079L22.0563 38.6959H25.2423L27.693 38.0048M27.693 38.0048L31.369 36.9681L38.231 36.2276L44.6028 36.7213" stroke="#E1E1E1" stroke-linejoin="round"/>
</g>
<defs>
<clipPath id="clip0_64_15">
<rect width="1420" height="92" fill="white"/>
</clipPath>
</defs>
</svg>
